<?xml version="1.0" encoding="UTF-8" standalone="no"?>
<!DOCTYPE svg PUBLIC "-//W3C//DTD SVG 1.1//EN"
 "http://www.w3.org/Graphics/SVG/1.1/DTD/svg11.dtd">
<!-- Generated by graphviz version 12.2.1 (20241206.2353)
 -->
<!-- Title: PSVMLoop Pages: 1 -->
<svg width="1005pt" height="504pt"
 viewBox="0.00 0.00 1004.60 503.91" xmlns="http://www.w3.org/2000/svg" xmlns:xlink="http://www.w3.org/1999/xlink">
<g id="graph0" class="graph" transform="scale(1 1) rotate(0) translate(10.8 493.11)">
<title>PSVMLoop</title>
<polygon fill="white" stroke="none" points="-10.8,10.8 -10.8,-493.11 993.8,-493.11 993.8,10.8 -10.8,10.8"/>
<g id="clust1" class="cluster">
<title>cluster_legend</title>
<path fill="white" stroke="#cbd5e1" stroke-width="1.2" d="M20,-376.31C20,-376.31 594,-376.31 594,-376.31 600,-376.31 606,-382.31 606,-388.31 606,-388.31 606,-462.31 606,-462.31 606,-468.31 600,-474.31 594,-474.31 594,-474.31 20,-474.31 20,-474.31 14,-474.31 8,-468.31 8,-462.31 8,-462.31 8,-388.31 8,-388.31 8,-382.31 14,-376.31 20,-376.31"/>
<text text-anchor="middle" x="307" y="-457.01" font-family="Helvetica,sans-Serif" font-size="14.00">Reading guide</text>
</g>
<g id="clust3" class="cluster">
<title>cluster_flow</title>
<path fill="white" stroke="#cbd5e1" stroke-width="1.2" d="M122,-131C122,-131 963,-131 963,-131 969,-131 975,-137 975,-143 975,-143 975,-231.28 975,-231.28 975,-237.28 969,-243.28 963,-243.28 963,-243.28 122,-243.28 122,-243.28 116,-243.28 110,-237.28 110,-231.28 110,-231.28 110,-143 110,-143 110,-137 116,-131 122,-131"/>
<text text-anchor="middle" x="542.5" y="-225.98" font-family="Helvetica,sans-Serif" font-size="14.00">PSVM execution loop</text>
</g>
<g id="clust5" class="cluster">
<title>cluster_trace</title>
<path fill="white" stroke="#fdba74" stroke-width="1.2" d="M513,-8C513,-8 953,-8 953,-8 959,-8 965,-14 965,-20 965,-20 965,-94 965,-94 965,-100 959,-106 953,-106 953,-106 513,-106 513,-106 507,-106 501,-100 501,-94 501,-94 501,-20 501,-20 501,-14 507,-8 513,-8"/>
<text text-anchor="middle" x="733" y="-88.7" font-family="Helvetica,sans-Serif" font-size="14.00">Trace grows by one record</text>
</g>
<!-- legend_runtime -->
<g id="node1" class="node">
<title>legend_runtime</title>
<path fill="#eef2ff" stroke="#4f46e5" d="M168.33,-420.31C168.33,-420.31 27.67,-420.31 27.67,-420.31 21.67,-420.31 15.67,-414.31 15.67,-408.31 15.67,-408.31 15.67,-396.31 15.67,-396.31 15.67,-390.31 21.67,-384.31 27.67,-384.31 27.67,-384.31 168.33,-384.31 168.33,-384.31 174.33,-384.31 180.33,-390.31 180.33,-396.31 180.33,-396.31 180.33,-408.31 180.33,-408.31 180.33,-414.31 174.33,-420.31 168.33,-420.31"/>
<text text-anchor="middle" x="98" y="-395.36" font-family="Helvetica,sans-Serif" font-size="16.00">Blue: exact runtime</text>
</g>
<!-- legend_model -->
<g id="node2" class="node">
<title>legend_model</title>
<path fill="#ecfdf5" stroke="#16a34a" d="M378.08,-420.31C378.08,-420.31 223.92,-420.31 223.92,-420.31 217.92,-420.31 211.92,-414.31 211.92,-408.31 211.92,-408.31 211.92,-396.31 211.92,-396.31 211.92,-390.31 217.92,-384.31 223.92,-384.31 223.92,-384.31 378.08,-384.31 378.08,-384.31 384.08,-384.31 390.08,-390.31 390.08,-396.31 390.08,-396.31 390.08,-408.31 390.08,-408.31 390.08,-414.31 384.08,-420.31 378.08,-420.31"/>
<text text-anchor="middle" x="301" y="-395.36" font-family="Helvetica,sans-Serif" font-size="16.00">Green: learned guide</text>
</g>
<!-- bridge -->
<g id="node4" class="node">
<title>bridge</title>
<path fill="#ffffff" stroke="#cbd5e1" d="M496.59,-335.31C496.59,-335.31 105.41,-335.31 105.41,-335.31 99.41,-335.31 93.41,-329.31 93.41,-323.31 93.41,-323.31 93.41,-300.03 93.41,-300.03 93.41,-294.03 99.41,-288.03 105.41,-288.03 105.41,-288.03 496.59,-288.03 496.59,-288.03 502.59,-288.03 508.59,-294.03 508.59,-300.03 508.59,-300.03 508.59,-323.31 508.59,-323.31 508.59,-329.31 502.59,-335.31 496.59,-335.31"/>
<text text-anchor="middle" x="301" y="-313.37" font-family="Helvetica,sans-Serif" font-size="14.00">The same loop can be written as a fixed trace.</text>
<text text-anchor="middle" x="301" y="-298.37" font-family="Helvetica,sans-Serif" font-size="14.00">The runtime executes; the model only ranks the ambiguous step.</text>
</g>
<!-- legend_model&#45;&gt;bridge -->
<!-- legend_trace -->
<g id="node3" class="node">
<title>legend_trace</title>
<path fill="#fff7ed" stroke="#c2410c" d="M585.59,-420.31C585.59,-420.31 434.42,-420.31 434.42,-420.31 428.42,-420.31 422.42,-414.31 422.42,-408.31 422.42,-408.31 422.42,-396.31 422.42,-396.31 422.42,-390.31 428.42,-384.31 434.42,-384.31 434.42,-384.31 585.59,-384.31 585.59,-384.31 591.59,-384.31 597.59,-390.31 597.59,-396.31 597.59,-396.31 597.59,-408.31 597.59,-408.31 597.59,-414.31 591.59,-420.31 585.59,-420.31"/>
<text text-anchor="middle" x="510" y="-395.36" font-family="Helvetica,sans-Serif" font-size="16.00">Orange: trace record</text>
</g>
<!-- state -->
<g id="node6" class="node">
<title>state</title>
<path fill="#eef2ff" stroke="#4f46e5" d="M322.21,-189.28C322.21,-189.28 279.79,-189.28 279.79,-189.28 273.79,-189.28 267.79,-183.28 267.79,-177.28 267.79,-177.28 267.79,-151 267.79,-151 267.79,-145 273.79,-139 279.79,-139 279.79,-139 322.21,-139 322.21,-139 328.21,-139 334.21,-145 334.21,-151 334.21,-151 334.21,-177.28 334.21,-177.28 334.21,-183.28 328.21,-189.28 322.21,-189.28"/>
<text text-anchor="middle" x="301" y="-165.44" font-family="Helvetica,sans-Serif" font-size="16.00">Exact</text>
<text text-anchor="middle" x="301" y="-148.94" font-family="Helvetica,sans-Serif" font-size="16.00">state</text>
</g>
<!-- bridge&#45;&gt;state -->
<!-- task -->
<g id="node5" class="node">
<title>task</title>
<path fill="#f8fafc" stroke="#64748b" d="M192.34,-189.28C192.34,-189.28 129.66,-189.28 129.66,-189.28 123.66,-189.28 117.66,-183.28 117.66,-177.28 117.66,-177.28 117.66,-151 117.66,-151 117.66,-145 123.66,-139 129.66,-139 129.66,-139 192.34,-139 192.34,-139 198.34,-139 204.34,-145 204.34,-151 204.34,-151 204.34,-177.28 204.34,-177.28 204.34,-183.28 198.34,-189.28 192.34,-189.28"/>
<text text-anchor="middle" x="161" y="-165.44" font-family="Helvetica,sans-Serif" font-size="16.00">Task</text>
<text text-anchor="middle" x="161" y="-148.94" font-family="Helvetica,sans-Serif" font-size="16.00">instance</text>
</g>
<!-- task&#45;&gt;state -->
<g id="edge1" class="edge">
<title>task&#45;&gt;state</title>
<path fill="none" stroke="#334155" stroke-width="1.6" d="M204.6,-164.14C206.53,-164.14 207.67,-164.14 207.67,-164.14 207.67,-164.14 254.33,-164.14 254.33,-164.14 254.33,-164.14 255.41,-164.14 257.24,-164.14"/>
<polygon fill="#334155" stroke="#334155" stroke-width="1.6" points="256.91,-166.94 264.91,-164.14 256.91,-161.34 256.91,-166.94"/>
</g>
<!-- valid -->
<g id="node7" class="node">
<title>valid</title>
<path fill="#eef2ff" stroke="#4f46e5" d="M464.21,-189.28C464.21,-189.28 409.79,-189.28 409.79,-189.28 403.79,-189.28 397.79,-183.28 397.79,-177.28 397.79,-177.28 397.79,-151 397.79,-151 397.79,-145 403.79,-139 409.79,-139 409.79,-139 464.21,-139 464.21,-139 470.21,-139 476.21,-145 476.21,-151 476.21,-151 476.21,-177.28 476.21,-177.28 476.21,-183.28 470.21,-189.28 464.21,-189.28"/>
<text text-anchor="middle" x="437" y="-165.44" font-family="Helvetica,sans-Serif" font-size="16.00">Valid</text>
<text text-anchor="middle" x="437" y="-148.94" font-family="Helvetica,sans-Serif" font-size="16.00">options</text>
</g>
<!-- state&#45;&gt;valid -->
<g id="edge2" class="edge">
<title>state&#45;&gt;valid</title>
<path fill="none" stroke="#334155" stroke-width="1.6" d="M334.42,-164.14C341.22,-164.14 346.33,-164.14 346.33,-164.14 346.33,-164.14 372.37,-164.14 387.56,-164.14"/>
<polygon fill="#334155" stroke="#334155" stroke-width="1.6" points="387.17,-166.94 395.17,-164.14 387.17,-161.34 387.17,-166.94"/>
</g>
<!-- score -->
<g id="node8" class="node">
<title>score</title>
<path fill="#ecfdf5" stroke="#16a34a" d="M650.34,-189.28C650.34,-189.28 551.66,-189.28 551.66,-189.28 545.66,-189.28 539.66,-183.28 539.66,-177.28 539.66,-177.28 539.66,-151 539.66,-151 539.66,-145 545.66,-139 551.66,-139 551.66,-139 650.34,-139 650.34,-139 656.34,-139 662.34,-145 662.34,-151 662.34,-151 662.34,-177.28 662.34,-177.28 662.34,-183.28 656.34,-189.28 650.34,-189.28"/>
<text text-anchor="middle" x="601" y="-165.44" font-family="Helvetica,sans-Serif" font-size="16.00">Model scores</text>
<text text-anchor="middle" x="601" y="-148.94" font-family="Helvetica,sans-Serif" font-size="16.00">options</text>
</g>
<!-- valid&#45;&gt;score -->
<g id="edge3" class="edge">
<title>valid&#45;&gt;score</title>
<path fill="none" stroke="#334155" stroke-width="1.6" d="M476.44,-164.14C485.06,-164.14 491.67,-164.14 491.67,-164.14 491.67,-164.14 512.84,-164.14 528.83,-164.14"/>
<polygon fill="#334155" stroke="#334155" stroke-width="1.6" points="528.76,-166.94 536.76,-164.14 528.76,-161.34 528.76,-166.94"/>
</g>
<!-- apply -->
<g id="node9" class="node">
<title>apply</title>
<path fill="#eef2ff" stroke="#4f46e5" d="M793.96,-189.28C793.96,-189.28 738.04,-189.28 738.04,-189.28 732.04,-189.28 726.04,-183.28 726.04,-177.28 726.04,-177.28 726.04,-151 726.04,-151 726.04,-145 732.04,-139 738.04,-139 738.04,-139 793.96,-139 793.96,-139 799.96,-139 805.96,-145 805.96,-151 805.96,-151 805.96,-177.28 805.96,-177.28 805.96,-183.28 799.96,-189.28 793.96,-189.28"/>
<text text-anchor="middle" x="766" y="-165.44" font-family="Helvetica,sans-Serif" font-size="16.00">Verify +</text>
<text text-anchor="middle" x="766" y="-148.94" font-family="Helvetica,sans-Serif" font-size="16.00">apply</text>
</g>
<!-- score&#45;&gt;apply -->
<g id="edge4" class="edge">
<title>score&#45;&gt;apply</title>
<path fill="none" stroke="#334155" stroke-width="1.6" d="M662.74,-164.14C677.43,-164.14 711,-164.14 711,-164.14 711,-164.14 712.69,-164.14 715.47,-164.14"/>
<polygon fill="#334155" stroke="#334155" stroke-width="1.6" points="715.32,-166.94 723.32,-164.14 715.32,-161.34 715.32,-166.94"/>
</g>
<!-- next -->
<g id="node10" class="node">
<title>next</title>
<path fill="#f8fafc" stroke="#64748b" d="M954.59,-189.28C954.59,-189.28 881.41,-189.28 881.41,-189.28 875.41,-189.28 869.41,-183.28 869.41,-177.28 869.41,-177.28 869.41,-151 869.41,-151 869.41,-145 875.41,-139 881.41,-139 881.41,-139 954.59,-139 954.59,-139 960.59,-139 966.59,-145 966.59,-151 966.59,-151 966.59,-177.28 966.59,-177.28 966.59,-183.28 960.59,-189.28 954.59,-189.28"/>
<text text-anchor="middle" x="918" y="-165.44" font-family="Helvetica,sans-Serif" font-size="16.00">New state</text>
<text text-anchor="middle" x="918" y="-148.94" font-family="Helvetica,sans-Serif" font-size="16.00">+ trace</text>
</g>
<!-- apply&#45;&gt;next -->
<g id="edge5" class="edge">
<title>apply&#45;&gt;next</title>
<path fill="none" stroke="#334155" stroke-width="1.6" d="M806.41,-164.14C812.43,-164.14 816.67,-164.14 816.67,-164.14 816.67,-164.14 843.41,-164.14 858.69,-164.14"/>
<polygon fill="#334155" stroke="#334155" stroke-width="1.6" points="858.6,-166.94 866.6,-164.14 858.6,-161.34 858.6,-166.94"/>
</g>
<!-- next&#45;&gt;state -->
<g id="edge6" class="edge">
<title>next&#45;&gt;state</title>
<path fill="none" stroke="#334155" stroke-width="1.6" d="M886.03,-189.66C858.11,-211.95 822,-240.78 822,-240.78 822,-240.78 382,-240.78 382,-240.78 382,-240.78 357.41,-217.51 335.33,-196.62"/>
<polygon fill="#334155" stroke="#334155" stroke-width="1.6" points="337.47,-194.79 329.73,-191.32 333.62,-198.86 337.47,-194.79"/>
<text text-anchor="middle" x="602" y="-252.63" font-family="Helvetica,sans-Serif" font-size="12.00">repeat</text>
</g>
<!-- trace_snext -->
<g id="node14" class="node">
<title>trace_snext</title>
<path fill="#fff7ed" stroke="#c2410c" d="M945.21,-52C945.21,-52 890.79,-52 890.79,-52 884.79,-52 878.79,-46 878.79,-40 878.79,-40 878.79,-28 878.79,-28 878.79,-22 884.79,-16 890.79,-16 890.79,-16 945.21,-16 945.21,-16 951.21,-16 957.21,-22 957.21,-28 957.21,-28 957.21,-40 957.21,-40 957.21,-46 951.21,-52 945.21,-52"/>
<text text-anchor="middle" x="918" y="-27.05" font-family="Helvetica,sans-Serif" font-size="16.00">S_(t+1)</text>
</g>
<!-- next&#45;&gt;trace_snext -->
<!-- trace_s -->
<g id="node11" class="node">
<title>trace_s</title>
<path fill="#fff7ed" stroke="#c2410c" d="M551,-52C551,-52 521,-52 521,-52 515,-52 509,-46 509,-40 509,-40 509,-28 509,-28 509,-22 515,-16 521,-16 521,-16 551,-16 551,-16 557,-16 563,-22 563,-28 563,-28 563,-40 563,-40 563,-46 557,-52 551,-52"/>
<text text-anchor="middle" x="536" y="-27.05" font-family="Helvetica,sans-Serif" font-size="16.00">S_t</text>
</g>
<!-- trace_v -->
<g id="node12" class="node">
<title>trace_v</title>
<path fill="#fff7ed" stroke="#c2410c" d="M685.46,-52C685.46,-52 638.54,-52 638.54,-52 632.54,-52 626.54,-46 626.54,-40 626.54,-40 626.54,-28 626.54,-28 626.54,-22 632.54,-16 638.54,-16 638.54,-16 685.46,-16 685.46,-16 691.46,-16 697.46,-22 697.46,-28 697.46,-28 697.46,-40 697.46,-40 697.46,-46 691.46,-52 685.46,-52"/>
<text text-anchor="middle" x="662" y="-27.05" font-family="Helvetica,sans-Serif" font-size="16.00">V(S_t)</text>
</g>
<!-- trace_s&#45;&gt;trace_v -->
<g id="edge7" class="edge">
<title>trace_s&#45;&gt;trace_v</title>
<path fill="none" stroke="#334155" stroke-width="1.6" d="M563.31,-34C571.33,-34 578,-34 578,-34 578,-34 601.62,-34 616.05,-34"/>
<polygon fill="#334155" stroke="#334155" stroke-width="1.6" points="615.78,-36.8 623.78,-34 615.78,-31.2 615.78,-36.8"/>
</g>
<!-- trace_a -->
<g id="node13" class="node">
<title>trace_a</title>
<path fill="#fff7ed" stroke="#c2410c" d="M803.21,-52C803.21,-52 772.79,-52 772.79,-52 766.79,-52 760.79,-46 760.79,-40 760.79,-40 760.79,-28 760.79,-28 760.79,-22 766.79,-16 772.79,-16 772.79,-16 803.21,-16 803.21,-16 809.21,-16 815.21,-22 815.21,-28 815.21,-28 815.21,-40 815.21,-40 815.21,-46 809.21,-52 803.21,-52"/>
<text text-anchor="middle" x="788" y="-27.05" font-family="Helvetica,sans-Serif" font-size="16.00">a_t*</text>
</g>
<!-- trace_v&#45;&gt;trace_a -->
<g id="edge8" class="edge">
<title>trace_v&#45;&gt;trace_a</title>
<path fill="none" stroke="#334155" stroke-width="1.6" d="M697.8,-34C701.54,-34 704,-34 704,-34 704,-34 746,-34 746,-34 746,-34 747.67,-34 750.34,-34"/>
<polygon fill="#334155" stroke="#334155" stroke-width="1.6" points="750.27,-36.8 758.27,-34 750.27,-31.2 750.27,-36.8"/>
</g>
<!-- trace_a&#45;&gt;trace_snext -->
<g id="edge9" class="edge">
<title>trace_a&#45;&gt;trace_snext</title>
<path fill="none" stroke="#334155" stroke-width="1.6" d="M815.69,-34C824.18,-34 831.33,-34 831.33,-34 831.33,-34 854.21,-34 868.14,-34"/>
<polygon fill="#334155" stroke="#334155" stroke-width="1.6" points="867.94,-36.8 875.94,-34 867.94,-31.2 867.94,-36.8"/>
</g>
</g>
</svg>
